HIERARCHY
ROOT Hips
{
	OFFSET -0.001795 -0.223333 0.028219
	CHANNELS 6 Xposition Yposition Zposition Zrotation Yrotation Xrotation 
	JOINT LeftUpLeg
	{
		OFFSET 0.069520 -0.091406 -0.006815
		CHANNELS 3 Zrotation Yrotation Xrotation
		JOINT LeftLeg
		{
			OFFSET 0.034277 -0.375199 -0.004496
			CHANNELS 3 Zrotation Yrotation Xrotation
			JOINT LeftFoot
			{
				OFFSET -0.013596 -0.397961 -0.043693
				CHANNELS 3 Zrotation Yrotation Xrotation
				JOINT LeftToe
				{
					OFFSET 0.026358 -0.055791 0.119288
					CHANNELS 3 Zrotation Yrotation Xrotation
					End Site
					{
						OFFSET 0.000000 0.000000 0.000000
					}
				}
			}
		}
	}
	JOINT RightUpLeg
	{
		OFFSET -0.067670 -0.090522 -0.004320
		CHANNELS 3 Zrotation Yrotation Xrotation
		JOINT RightLeg
		{
			OFFSET -0.038290 -0.382569 -0.008850
			CHANNELS 3 Zrotation Yrotation Xrotation
			JOINT RightFoot
			{
				OFFSET 0.015774 -0.398415 -0.042312
				CHANNELS 3 Zrotation Yrotation Xrotation
				JOINT RightToe
				{
					OFFSET -0.025372 -0.048144 0.123348
					CHANNELS 3 Zrotation Yrotation Xrotation
					End Site
					{
						OFFSET 0.000000 0.000000 0.000000
					}
				}
			}
		}
	}
	JOINT Spine
	{
		OFFSET -0.002533 0.108963 -0.026696
		CHANNELS 3 Zrotation Yrotation Xrotation
		JOINT Spine1
		{
			OFFSET 0.005487 0.135180 0.001092
			CHANNELS 3 Zrotation Yrotation Xrotation
			JOINT Spine2
			{
				OFFSET 0.001457 0.052922 0.025425
				CHANNELS 3 Zrotation Yrotation Xrotation
				JOINT Neck
				{
					OFFSET -0.002778 0.213870 -0.042857
					CHANNELS 3 Zrotation Yrotation Xrotation
					JOINT Head
					{
						OFFSET 0.005152 0.064970 0.051349
						CHANNELS 3 Zrotation Yrotation Xrotation
						End Site
						{
							OFFSET 0.000000 0.000000 0.000000
						}
					}
				}
				JOINT LeftShoulder
				{
					OFFSET 0.078845 0.121749 -0.034090
					CHANNELS 3 Zrotation Yrotation Xrotation
					JOINT LeftArm
					{
						OFFSET 0.090977 0.030469 -0.008868
						CHANNELS 3 Zrotation Yrotation Xrotation
						JOINT LeftForeArm
						{
							OFFSET 0.259612 -0.012772 -0.027456
							CHANNELS 3 Zrotation Yrotation Xrotation
							JOINT LeftHand
							{
								OFFSET 0.249234 0.008986 -0.001171
								CHANNELS 3 Zrotation Yrotation Xrotation
								End Site
								{
									OFFSET 0.000000 0.000000 0.000000
								}
							}
						}
					}
				}
				JOINT RightShoulder
				{
					OFFSET -0.081759 0.118833 -0.038615
					CHANNELS 3 Zrotation Yrotation Xrotation
					JOINT RightArm
					{
						OFFSET -0.096012 0.032551 -0.009143
						CHANNELS 3 Zrotation Yrotation Xrotation
						JOINT RightForeArm
						{
							OFFSET -0.253742 -0.013329 -0.021401
							CHANNELS 3 Zrotation Yrotation Xrotation
							JOINT RightHand
							{
								OFFSET -0.255298 0.007772 -0.005559
								CHANNELS 3 Zrotation Yrotation Xrotation
								End Site
								{
									OFFSET 0.000000 0.000000 0.000000
								}
							}
						}
					}
				}
			}
		}
	}
}
MOTION
Frames: 17
Frame Time: 0.050000
0.000000 0.955483 0.000000 -0.087712 -10.239379 -0.699321 -1.247866 -1.035602 -10.702320 -2.235229 0.496013 17.858318 4.052375 9.251652 4.675207 0.000000 0.000000 0.000000 -2.723226 2.142416 -21.785672 1.510364 2.892606 40.809324 -3.690268 -9.681574 0.993831 0.000000 0.000000 0.000000 7.083734 -1.510625 17.304504 -4.328003 1.485326 -22.636753 -1.498808 5.838105 33.959676 9.857219 -4.281758 -27.377810 0.000000 0.000000 0.000000 -12.373931 6.845424 -3.617577 -58.655980 12.908106 -16.081176 -28.918021 -43.487210 15.398758 0.000000 0.000000 0.000000 15.739272 -14.367596 -8.382976 52.183500 -19.871408 -15.973687 50.155841 32.523799 17.116237 0.000000 0.000000 0.000000 
0.003391 0.953449 -0.020767 -0.592305 -9.498984 -0.462516 -0.183024 -0.997934 -11.543251 -3.381361 0.762820 17.089856 4.427491 9.707654 2.362758 0.000000 0.000000 0.000000 -2.044118 2.098998 -20.819292 2.753832 2.885982 47.828944 -3.683022 -10.503632 3.534522 0.000000 0.000000 0.000000 7.651766 -1.552849 16.377332 -3.413832 1.257133 -21.371042 -1.260805 5.932209 33.252676 8.341085 -3.182056 -27.665245 0.000000 0.000000 0.000000 -11.481281 7.960369 -4.192477 -58.427692 16.050983 -17.360410 -32.548736 -41.888314 16.094672 0.000000 0.000000 0.000000 15.566094 -13.115400 -7.561918 52.924193 -21.420603 -16.770956 53.886317 32.086861 18.349617 0.000000 0.000000 0.000000 
0.005201 0.950684 -0.043052 0.871534 -8.460111 -0.417969 -1.819270 -1.245105 -12.247195 -3.018571 0.539083 14.431721 4.598330 10.432539 5.384132 0.000000 0.000000 0.000000 -3.257324 1.419417 -16.157148 2.933495 2.459484 46.692463 -3.303588 -8.752313 1.178868 0.000000 0.000000 0.000000 8.067667 -1.561679 15.523318 -5.242841 1.801366 -20.121795 -0.265236 5.601252 32.444539 6.634755 -2.142709 -27.523660 0.000000 0.000000 0.000000 -11.005066 7.242124 -3.851238 -58.093253 19.548935 -18.837357 -36.807828 -43.633542 18.575519 0.000000 0.000000 0.000000 15.027704 -13.278999 -7.480740 53.208032 -21.776248 -16.979443 56.032190 29.526933 17.633643 0.000000 0.000000 0.000000 
0.005011 0.947765 -0.067962 2.015455 -8.467539 -1.004006 -2.094199 -1.390028 -13.441920 -3.572684 0.663595 13.622925 4.145537 9.737227 6.608433 0.000000 0.000000 0.000000 -3.620863 1.060144 -12.572295 1.695780 2.724274 42.627282 -2.714109 -6.483181 -0.707330 0.000000 0.000000 0.000000 7.559518 -1.576229 16.802691 -4.947479 1.706852 -21.313498 0.242667 8.732728 33.525791 7.256300 -2.003887 -27.260189 0.000000 0.000000 0.000000 -11.613911 6.426951 -3.967795 -59.094103 21.805357 -20.658223 -36.535667 -45.189001 18.629806 0.000000 0.000000 0.000000 16.733627 -12.863747 -6.932902 53.685761 -20.151958 -16.540976 57.755760 30.192087 19.667596 0.000000 0.000000 0.000000 
0.002599 0.943994 -0.097436 2.786524 -6.705112 -1.210359 -2.582487 -1.728313 -16.107513 -3.678985 0.636090 14.065382 3.894910 9.707861 8.780378 0.000000 0.000000 0.000000 -3.254853 0.699548 -8.148050 0.554274 2.099894 33.742806 -3.389542 -6.331888 -4.751923 0.000000 0.000000 0.000000 7.773193 -1.760319 18.099041 -5.214083 1.828132 -20.643343 0.838771 9.592421 32.555883 8.392178 -2.142558 -28.567089 0.000000 0.000000 0.000000 -11.433913 6.030133 -4.062608 -58.089506 24.010200 -21.359757 -42.637519 -46.567626 21.663377 0.000000 0.000000 0.000000 16.934746 -12.195018 -6.234737 53.616654 -17.235315 -15.178844 60.951801 30.580086 21.752953 0.000000 0.000000 0.000000 
-0.000425 0.940492 -0.130406 2.386305 -6.539861 -1.422980 -1.305677 -1.734613 -18.296824 -3.953556 0.724136 15.176611 2.939995 8.212014 9.569065 0.000000 0.000000 0.000000 -2.233626 0.681451 -7.552504 0.970058 1.661491 30.812272 -4.137782 -7.732935 -6.202483 0.000000 0.000000 0.000000 8.672045 -2.083531 20.046326 -5.451703 1.892381 -21.164773 1.940568 11.957112 32.941262 9.033784 -1.734370 -30.740783 0.000000 0.000000 0.000000 -10.760345 5.199303 -3.927049 -60.022922 25.058490 -22.983532 -47.582717 -48.217036 24.574346 0.000000 0.000000 0.000000 17.354069 -11.206963 -5.194099 53.789409 -12.694426 -13.410876 62.826500 32.182081 24.682956 0.000000 0.000000 0.000000 
-0.002648 0.940511 -0.163820 2.030408 -5.981452 -1.642264 0.465661 -1.555369 -19.680667 -4.637504 0.895258 15.749366 3.466990 8.958146 8.400439 0.000000 0.000000 0.000000 -2.608974 0.796086 -9.116635 2.027080 1.090357 29.206913 -5.125847 -10.710378 -5.952009 0.000000 0.000000 0.000000 8.791668 -2.271807 21.563298 -5.216908 1.832270 -21.430368 2.552135 12.490936 33.259304 8.169960 -1.112058 -30.677753 0.000000 0.000000 0.000000 -14.042926 4.887323 -4.631178 -57.017997 24.971446 -21.563040 -54.325733 -49.672729 28.799459 0.000000 0.000000 0.000000 18.053425 -8.582108 -3.517255 51.167800 -6.549069 -10.677605 66.763089 33.516698 27.918460 0.000000 0.000000 0.000000 
-0.003503 0.945486 -0.194734 1.443318 -4.965704 -0.526324 1.670063 -1.486237 -21.470683 -4.801857 0.899202 16.210591 4.206621 10.506344 9.525250 0.000000 0.000000 0.000000 -2.259233 0.999620 -11.266290 2.552522 0.649350 26.505689 -5.318239 -12.056260 -3.875820 0.000000 0.000000 0.000000 8.825732 -2.305043 20.908178 -4.526163 1.663715 -20.501797 2.866305 13.661552 32.004382 8.439715 -0.939481 -30.536742 0.000000 0.000000 0.000000 -14.604665 3.230599 -4.342986 -57.187363 25.252354 -21.674075 -60.435053 -48.875163 31.112981 0.000000 0.000000 0.000000 18.199864 -7.996060 -2.875224 49.058418 -3.719946 -9.170305 72.289753 33.803163 31.422468 0.000000 0.000000 0.000000 
-0.002656 0.953849 -0.222890 1.288129 -4.379418 -0.220575 2.014774 -1.455624 -21.634728 -4.832357 1.022914 21.265184 5.073969 11.744057 7.413598 0.000000 0.000000 0.000000 -1.808695 1.078004 -11.833178 1.988228 0.639825 23.483836 -4.180350 -10.486728 0.283560 0.000000 0.000000 0.000000 8.872795 -2.278148 20.192218 -5.011211 1.794480 -21.467213 3.000554 13.562912 33.045320 10.022216 -1.826116 -30.526493 0.000000 0.000000 0.000000 -14.070335 3.992771 -4.633046 -57.944872 25.099674 -22.078471 -65.536714 -45.167736 31.303804 0.000000 0.000000 0.000000 16.748846 -7.705759 -2.645085 49.265317 -0.794017 -8.107852 76.785099 34.326731 34.840326 0.000000 0.000000 0.000000 
0.000122 0.960947 -0.249466 0.769200 -4.515731 0.540388 2.401533 -1.278189 -19.814861 -5.080041 1.308743 26.588312 5.271546 11.786917 5.013941 0.000000 0.000000 0.000000 -1.397770 1.157371 -12.305141 1.301438 0.684428 20.176330 -2.897623 -8.118755 2.219259 0.000000 0.000000 0.000000 8.745542 -2.154984 19.012391 -5.372707 1.872196 -22.101931 3.655291 13.510301 33.338392 10.427307 -2.112229 -30.159129 0.000000 0.000000 0.000000 -13.494126 3.687826 -4.357116 -57.808804 25.156297 -22.008848 -69.084400 -42.370628 30.998570 0.000000 0.000000 0.000000 14.187247 -8.018182 -2.853307 50.372918 -0.497020 -7.887023 80.873909 35.109523 38.409777 0.000000 0.000000 0.000000 
0.004680 0.964297 -0.276020 0.424337 -5.917060 0.995973 2.738045 -1.007479 -16.495406 -5.796016 2.040510 31.862142 4.824705 10.632433 3.017770 0.000000 0.000000 0.000000 -1.411030 1.272799 -13.319674 1.276113 0.639236 17.980296 -1.833085 -6.349861 3.790387 0.000000 0.000000 0.000000 8.731852 -2.017392 18.031549 -5.499884 1.855184 -22.990959 2.778533 13.866935 33.640901 10.754727 -2.335436 -30.488883 0.000000 0.000000 0.000000 -11.865104 4.624485 -4.315239 -58.918212 25.545652 -22.802304 -71.012797 -40.084915 30.441639 0.000000 0.000000 0.000000 14.382175 -7.977062 -2.911031 49.829996 0.601180 -7.468469 82.911197 36.327064 40.700586 0.000000 0.000000 0.000000 
0.010830 0.962369 -0.303517 0.354755 -7.604539 1.687412 1.850832 -0.902843 -13.040393 -5.467831 2.458109 35.829729 4.273159 9.581767 3.168411 0.000000 0.000000 0.000000 -1.912902 1.432274 -15.062586 1.861192 0.456630 16.057009 -1.176338 -5.254725 4.429220 0.000000 0.000000 0.000000 8.789518 -1.856530 16.672249 -6.800301 2.180838 -22.214898 3.195313 14.311749 33.319198 10.678373 -2.682557 -28.490388 0.000000 0.000000 0.000000 -10.825387 2.785874 -3.143739 -58.948899 25.726916 -22.836173 -74.114824 -40.816732 32.815415 0.000000 0.000000 0.000000 13.815534 -9.771395 -3.964982 50.819764 -0.590717 -7.890622 85.659683 36.861382 42.965868 0.000000 0.000000 0.000000 
0.018897 0.955761 -0.333434 -1.041871 -9.508040 2.118365 1.484709 -0.560506 -7.391169 -3.476265 1.758791 34.481509 2.564184 5.997536 2.180210 0.000000 0.000000 0.000000 -0.454683 1.924250 -17.744492 2.582102 0.325011 15.428106 -1.599008 -6.519493 4.852680 0.000000 0.000000 0.000000 9.857830 -1.931325 16.278124 -6.730831 2.100800 -23.340548 2.537235 13.653469 34.622496 10.327928 -3.045150 -27.182735 0.000000 0.000000 0.000000 -9.306590 5.263145 -3.674186 -59.041310 26.074168 -23.077809 -76.684786 -39.300116 33.710882 0.000000 0.000000 0.000000 13.678946 -8.787927 -3.682723 50.870651 -0.140266 -7.919308 86.176393 38.100504 43.838246 0.000000 0.000000 0.000000 
0.029243 0.947871 -0.367144 -2.214837 -9.222640 2.833966 1.092593 -0.259181 -3.065845 -0.147003 0.013791 28.595640 2.133967 3.833103 -2.846690 0.000000 0.000000 0.000000 -0.576854 2.310401 -20.857155 4.080401 -0.053834 14.360977 -2.210334 -8.600262 6.673437 0.000000 0.000000 0.000000 10.331973 -2.052924 16.405333 -7.162371 2.225888 -22.551385 1.677411 12.170419 33.965483 9.949558 -3.154060 -26.516826 0.000000 0.000000 0.000000 -10.073654 3.744853 -2.936043 -58.729486 25.160673 -22.328514 -74.671486 -42.056725 35.423791 0.000000 0.000000 0.000000 14.957967 -9.482592 -4.337414 51.105379 -1.681095 -8.585092 84.918743 39.426221 43.575721 0.000000 0.000000 0.000000 
0.042176 0.940536 -0.405169 -2.783004 -9.323155 2.847306 1.305669 -0.070004 -0.805004 -0.928603 0.150403 22.289398 2.933295 5.327875 -4.454907 0.000000 0.000000 0.000000 -0.603327 2.642842 -23.288525 4.190185 -0.089113 13.931380 -1.844851 -8.423428 8.113823 0.000000 0.000000 0.000000 9.584232 -2.108969 18.090331 -7.515202 2.307543 -22.604193 1.568039 10.923405 33.897306 11.586277 -4.379594 -26.665808 0.000000 0.000000 0.000000 -10.533556 2.057439 -2.030324 -57.583425 21.919232 -20.257575 -71.563187 -43.319776 35.114237 0.000000 0.000000 0.000000 16.836728 -10.216439 -5.139658 50.605316 -1.228141 -8.414140 80.200284 40.329211 40.520762 0.000000 0.000000 0.000000 
0.057242 0.937203 -0.445270 -2.407260 -9.527665 3.068368 0.413838 -0.175849 -1.910524 -0.880569 0.104428 20.085560 3.653161 6.687706 -6.342658 0.000000 0.000000 0.000000 -2.043484 2.672952 -25.267340 3.755386 -0.084292 11.281395 -0.951277 -6.943354 8.844993 0.000000 0.000000 0.000000 8.022099 -1.940822 19.215201 -7.093755 2.246374 -20.725638 1.039632 9.999099 33.604555 11.637752 -4.629902 -26.540665 0.000000 0.000000 0.000000 -11.877933 -0.264937 -0.918458 -57.552527 18.942096 -18.816538 -66.935817 -46.950396 35.749696 0.000000 0.000000 0.000000 18.660387 -9.583110 -5.204841 51.019728 -1.544855 -8.633682 74.643136 44.089863 39.846508 0.000000 0.000000 0.000000 
0.072375 0.940751 -0.482697 -2.281381 -10.702147 3.219443 -0.026132 -0.362118 -3.893468 -1.574310 0.342456 18.317125 4.713763 9.724338 -4.009431 0.000000 0.000000 0.000000 -3.292978 2.685388 -26.606533 4.619126 -0.252433 9.500267 -1.191338 -7.665496 9.065948 0.000000 0.000000 0.000000 7.113064 -1.829836 20.628370 -7.145294 2.267304 -19.739625 0.724967 10.009486 34.329718 12.880151 -5.554079 -26.444372 0.000000 0.000000 0.000000 -12.726973 -1.570991 -0.225052 -57.350385 16.500042 -17.676800 -62.569697 -48.438285 34.567434 0.000000 0.000000 0.000000 19.794047 -9.628741 -5.518393 51.892340 -2.432640 -9.177640 69.799657 45.923249 38.066712 0.000000 0.000000 0.000000 
